<svg width="122" height="122" fill="none" xmlns="http://www.w3.org/2000/svg"><rect x=".37" y=".462" width="121.105" height="121.105" rx="24" fill="#596B66"/><path d="M52.737 11.216l-5.382 1.567c4.02 13.896 8.651 24.115 16.213 32.153l3.61-4.837c-10.082-8.992-13.01-20.64-14.441-28.883zm-42.645 3.678l.41 5.723c1.43-.273 2.588-.41 3.882-.614 2.453-.272 8.038-.953 11.513-1.498-5.995 6.744-12.671 16.553-12.671 29.224 0 11.308 7.834 17.303 18.53 17.303 21.39 0 25.204-21.05 21.662-40.532l-4.973-9.197c5.177 26.704-.34 44.143-16.554 44.143-7.016 0-13.351-3.202-13.351-12.875 0-13.965 10.422-25.886 14.714-29.088 1.022-.477 2.725-.954 3.61-1.226l-1.567-4.769c-4.019 1.499-15.463 3.134-21.526 3.406a33.036 33.036 0 01-3.679 0zm75.67 41.846h-6.335c.272 1.567.409 4.088.409 5.655-.137 21.526-5.723 33.039-14.238 40.736-2.043 1.908-4.768 3.815-6.948 4.973l4.973 4.019c13.42-9.332 20.913-22.07 21.799-49.865.068-1.634.204-3.95.34-5.517zm23.707 14.17l-3.883-1.976c-1.158.205-2.453.341-4.292.341H67.642a94.85 94.85 0 01-7.834-.34v5.722c2.452-.205 5.177-.273 7.902-.273h35.9c0 7.29-.886 24.047-3.474 29.292-.75 1.635-2.044 2.248-3.951 2.248-2.93 0-6.472-.34-10.15-.817l.68 5.654c3.543.273 7.494.477 10.9.477 3.747 0 5.927-1.226 7.289-4.156 3.066-6.539 3.951-26.294 4.156-32.902.068-.886.204-2.112.409-3.27z" fill="#3C4845"/><path stroke="#3C4845" stroke-width=".237" stroke-linecap="round" d="M31.21 85.919l59.265-50.798"/></svg>