<?xml version="1.0" standalone="no"?>
<!DOCTYPE svg PUBLIC "-//W3C//DTD SVG 20010904//EN"
 "http://www.w3.org/TR/2001/REC-SVG-20010904/DTD/svg10.dtd">
<svg version="1.0" xmlns="http://www.w3.org/2000/svg"
 width="426.000000pt" height="426.000000pt" viewBox="0 0 426.000000 426.000000"
 preserveAspectRatio="xMidYMid meet">
<metadata>
Created by potrace 1.14, written by Peter Selinger 2001-2017
</metadata>
<g transform="translate(0.000000,426.000000) scale(0.100000,-0.100000)"
fill="#000000" stroke="none">
<path d="M710 4244 c-79 -16 -140 -36 -200 -64 -266 -123 -450 -376 -488 -668
-10 -79 -9 -2692 1 -2771 17 -126 82 -287 160 -389 32 -42 167 -172 209 -200
53 -36 150 -82 223 -106 146 -47 128 -46 1530 -46 768 0 1337 4 1360 10 22 5
56 12 75 15 89 15 320 113 320 136 0 4 8 10 18 13 9 3 44 32 77 63 134 128
217 275 255 453 8 41 10 420 8 1480 l-3 1425 -23 63 c-51 142 -102 229 -192
331 -26 28 -136 121 -145 121 -5 0 -16 6 -24 14 -50 43 -206 106 -310 124 -34
6 -578 10 -1420 10 -1109 0 -1378 -3 -1431 -14z"/>
</g>
</svg>
