<?xml version="1.0" standalone="no"?>
<!DOCTYPE svg PUBLIC "-//W3C//DTD SVG 20010904//EN"
 "http://www.w3.org/TR/2001/REC-SVG-20010904/DTD/svg10.dtd">
<svg version="1.0" xmlns="http://www.w3.org/2000/svg"
 width="700.000000pt" height="700.000000pt" viewBox="0 0 700.000000 700.000000"
 preserveAspectRatio="xMidYMid meet">
<metadata>
Created by potrace 1.14, written by Peter Selinger 2001-2017
</metadata>
<g transform="translate(0.000000,700.000000) scale(0.100000,-0.100000)"
fill="#000000" stroke="none">
<path d="M292 6062 c-6 -2 -12 -9 -12 -14 0 -6 160 -495 356 -1087 196 -592
428 -1292 516 -1556 l159 -480 -4 -1103 c-3 -794 -1 -1104 7 -1110 14 -10 913
-9 923 2 7 7 7 563 0 1796 l-3 435 189 560 c104 308 224 666 268 795 44 129
111 327 149 440 38 113 153 452 255 755 102 302 184 554 181 560 -5 13 -899
16 -911 3 -4 -3 -20 -53 -36 -110 -16 -57 -38 -132 -48 -168 -11 -36 -49 -173
-86 -305 -120 -432 -132 -476 -235 -840 -55 -198 -103 -369 -105 -380 -3 -11
-22 -80 -43 -154 l-38 -133 -12 38 c-6 22 -18 64 -26 94 -8 30 -27 98 -41 150
-14 52 -33 119 -41 148 -8 28 -21 78 -30 110 -8 31 -17 64 -19 72 -9 32 -57
208 -71 260 -9 30 -22 78 -29 105 -7 28 -66 241 -130 475 -64 234 -123 450
-131 480 -33 123 -46 160 -57 162 -29 3 -884 4 -895 0z"/>
<path d="M3722 6056 c-8 -12 -7 67 -16 -3028 -5 -1842 -4 -2308 6 -2314 15
-10 875 -13 903 -3 20 6 20 17 25 990 l5 984 335 1 c389 1 456 6 600 44 529
137 966 602 1114 1185 16 63 40 201 52 295 4 30 8 135 9 233 2 248 -31 479
-96 672 -35 104 -136 297 -199 380 -244 325 -579 511 -1010 561 -109 13 -1720
13 -1728 0z m1661 -919 c227 -62 377 -234 432 -495 29 -142 13 -384 -36 -541
-80 -252 -272 -446 -473 -476 -37 -6 -588 -11 -653 -6 -10 1 -13 161 -13 764
l0 763 358 0 c196 -1 369 -5 385 -9z"/>
</g>
</svg>
