<svg width="44" height="44" viewBox="0 0 44 44" fill="none" xmlns="http://www.w3.org/2000/svg">
<rect x="0.380615" y="0.328125" width="43.6195" height="43.6195" rx="8.6443" fill="#3D2C53"/>
<rect x="4.46997" y="5.9502" width="35.4409" height="32.3183" rx="10.6864" fill="#694E8B"/>
<path d="M18.623 16.8613V18.5056H10.6846V16.8613H13.7038V15.7144H15.583V16.8613H18.623ZM21.3865 19.383H22.8443V21.2623H21.3865V25.608H19.5418V16.1428H21.3865V19.383ZM12.1839 23.5353C11.5436 23.0517 11.2235 22.4299 11.2235 21.6699C11.2235 20.9099 11.5436 20.2904 12.1839 19.8114C12.8287 19.3278 13.6462 19.086 14.6365 19.086C15.6222 19.086 16.4374 19.3278 17.0823 19.8114C17.7317 20.295 18.0564 20.9145 18.0564 21.6699C18.0564 22.1719 17.9067 22.621 17.6073 23.0171C17.3126 23.4132 16.9049 23.7195 16.3845 23.936C15.864 24.1525 15.2814 24.2607 14.6365 24.2607C13.6462 24.2607 12.8287 24.0189 12.1839 23.5353ZM13.4136 20.8339C13.0958 21.0504 12.9369 21.329 12.9369 21.6699C12.9369 22.0107 13.0958 22.2894 13.4136 22.5059C13.7315 22.7223 14.1391 22.8306 14.6365 22.8306C15.1386 22.8306 15.5485 22.7223 15.8663 22.5059C16.1887 22.2894 16.3499 22.0107 16.3499 21.6699C16.3499 21.329 16.1887 21.0504 15.8663 20.8339C15.5485 20.6174 15.1386 20.5092 14.6365 20.5092C14.1391 20.5092 13.7315 20.6174 13.4136 20.8339ZM13.7176 24.8134V26.5683H21.7389V28.2403H11.8453V24.8134H13.7176ZM33.9124 20.1707H35.3287V21.7044H23.4246V20.1707H32.047C32.1943 19.5166 32.268 18.858 32.268 18.1947V17.9667H24.3159V16.3086H34.168V17.8493C34.168 18.7152 34.0828 19.489 33.9124 20.1707ZM26.2711 26.1192V26.8377H34.4927V28.2955H24.4472V24.7443H32.4684V24.0189H24.3643V22.5819H34.3062V26.1192H26.2711Z" fill="#3D2C53"/>
</svg>
