<svg width="44" height="45" viewBox="0 0 44 45" fill="none" xmlns="http://www.w3.org/2000/svg">
<rect x="0.283447" y="0.575195" width="43.6195" height="43.6195" rx="8.6443" fill="#3D2C53"/>
<path d="M19.1447 3.99877L17.2063 4.5631C18.6539 9.56844 20.3224 13.2488 23.0459 16.1441L24.3463 14.402C20.715 11.1633 19.6599 6.96762 19.1447 3.99877ZM3.78514 5.32371L3.93236 7.38474C4.44761 7.28659 4.86472 7.23752 5.33091 7.16391C6.2142 7.06577 8.22615 6.82041 9.47749 6.62412C7.31832 9.05318 4.91379 12.5864 4.91379 17.1501C4.91379 21.223 7.73543 23.3822 11.5876 23.3822C19.2919 23.3822 20.6659 15.8006 19.39 8.78329L17.5989 5.47093C19.4636 15.089 17.4762 21.3702 11.6367 21.3702C9.10945 21.3702 6.8276 20.2171 6.8276 16.7329C6.8276 11.7031 10.5816 7.40927 12.1274 6.25608C12.4954 6.08433 13.1088 5.91258 13.4278 5.81443L12.8635 4.09691C11.4158 4.63671 7.29378 5.22557 5.11008 5.32371C4.66843 5.34825 4.15318 5.34825 3.78514 5.32371Z" fill="#694E8B"/>
<path d="M31.0398 20.3964H28.758C28.8561 20.9607 28.9052 21.8685 28.9052 22.4328C28.8561 30.1862 26.8442 34.3328 23.7772 37.1054C23.0411 37.7924 22.0597 38.4794 21.2745 38.8965L23.0656 40.3441C27.8992 36.9827 30.5982 32.3945 30.9172 22.3838C30.9417 21.7949 30.9908 20.9607 31.0398 20.3964ZM39.5784 25.4998L38.1798 24.7883C37.7627 24.8619 37.2965 24.911 36.634 24.911H24.5133C23.5564 24.911 22.5504 24.8619 21.6916 24.7883V26.8493C22.5749 26.7757 23.5564 26.7512 24.5378 26.7512H37.4683C37.4683 29.3765 37.1493 35.4124 36.2169 37.3017C35.947 37.8905 35.4809 38.1113 34.7938 38.1113C33.7388 38.1113 32.4629 37.9887 31.138 37.8169L31.3833 39.8534C32.6592 39.9515 34.0823 40.0251 35.3091 40.0251C36.6586 40.0251 37.4437 39.5835 37.9344 38.5284C39.0386 36.173 39.3575 29.0576 39.4311 26.6776C39.4557 26.3586 39.5048 25.917 39.5784 25.4998Z" fill="#694E8B"/>
<line x1="11.3911" y1="31.355" x2="32.7369" y2="13.0585" stroke="#694E8B" stroke-width="0.0851944" stroke-linecap="round"/>
</svg>
