<svg version="1.2" xmlns="http://www.w3.org/2000/svg" viewBox="0 0 44 43" width="44" height="43">
	<title>favicon-svg</title>
	<style>
		.s0 { fill: #3d2c53 } 
		.s1 { fill: #694e8b } 
	</style>
	<path id="Layer" class="s0" d="m0 8.2c0-4.9 4-8.9 8.9-8.9h26.2c4.9 0 8.8 4 8.8 8.9v26.1c0 4.9-3.9 8.9-8.8 8.9h-26.2c-4.9 0-8.9-4-8.9-8.9z" />
	<path id="Layer" fill-rule="evenodd" class="s1" d="m15.3 37h-4.7q-0.2 0-0.2-0.2l0.1-11.8l-5.6-16.7q0-0.2 0.1-0.2h4.7q0.2 0 0.2 0.2l3.1 11.1l3.1-11.1q0-0.2 0.2-0.2h4.7q0.1 0 0.1 0.2l-5.6 16.6v11.9q0 0.2-0.2 0.2zm12.9 0h-4.6q-0.2 0-0.2-0.2v-28.5q0-0.2 0.2-0.2h8q3.8 0 6 2.3q2.2 2.3 2.2 6.3q0 3-1.1 5.1q-1.2 2.2-3.1 3.4q-1.8 1.1-4 1.1h-3.2v10.5q0 0.2-0.2 0.2zm3.4-24l-3.2 0.1v8.2h3.2q1.3 0 2.3-1.3q1-1.2 1-3.3q0-1.6-0.9-2.6q-0.9-1.1-2.4-1.1z" />
</svg>